<svg width="100" height="125" viewBox="0 0 100 125" fill="none" xmlns="http://www.w3.org/2000/svg">
<path d="M59.2563 20.6315C60.0536 15.4055 56.7021 10.4839 51.7705 9.63904C46.8388 8.79414 42.1946 12.3458 41.3973 17.5719C40.6 22.798 43.9516 27.7195 48.8832 28.5644C53.8148 29.4093 58.4591 25.8576 59.2563 20.6315Z" fill="#15ADD2"/>
<path d="M7.04587 51.4315C6.38787 43.1107 7.83173 37.1544 7.83173 37.1544C7.18794 75.1924 32.3506 98.3662 32.3506 98.3662L33.0198 97.2434C42.9998 80.4965 42.338 71.7535 29.9406 56.5676L29.9018 56.5201L29.8644 56.4718C28.9005 55.2317 27.7408 53.8133 26.513 52.311C24.5697 49.9347 22.5613 47.4783 21.0135 45.3413C14.9696 37.1885 10.0749 25.3116 12.1865 14.1312C4.60004 23.4234 0 35.5285 0 48.7794C0 66.7869 8.48301 82.6835 21.4382 92.2585C11.6444 78.907 7.94464 62.7996 7.04587 51.4315Z" fill="#9ED44E"/>
<path d="M92.9534 51.4315C93.6114 43.1107 92.1676 37.1544 92.1676 37.1544C92.8113 75.1924 67.6487 98.3662 67.6487 98.3662L66.9795 97.2434C56.9995 80.4965 57.6613 71.7535 70.0586 56.5676L70.0975 56.5201L70.1349 56.4718C71.0987 55.2317 72.2585 53.8133 73.487 52.311C75.4296 49.9347 77.4387 47.4783 78.9865 45.3413C85.0304 37.1885 89.9251 25.3116 87.8135 14.1312C95.4 23.4234 100 35.5285 100 48.7794C100 66.7869 91.517 82.6835 78.5618 92.2585C88.3549 78.907 92.0546 62.7996 92.9534 51.4315Z" fill="#15ADD2"/>
<path d="M62.8819 100C49.4512 90.7641 43.0753 75.2613 49.6927 58.9812C52.961 50.521 57.9775 43.7858 63.0905 36.7971C67.9291 29.6079 73.8676 21.7578 73.8593 12.6407C73.7793 8.27556 71.8808 4.10846 69.8979 0C72.1919 0.831201 74.3857 2.02293 76.35 3.76378C87.6826 13.6479 82.5764 31.508 74.6721 41.7906C72.2831 45.1012 68.4645 49.5662 65.9424 52.8236C52.1886 69.8407 51.4155 81.5432 62.8819 100Z" fill="#9ED44E"/>
<path d="M45.2003 56.9812C45.8239 55.3719 46.5208 53.8387 47.2476 52.3379C44.2739 46.7929 40.6324 41.858 36.9304 36.7971C32.0911 29.6071 26.1541 21.7594 26.1624 12.6407C26.2401 8.27477 28.1416 4.10371 30.1231 0C27.8291 0.831201 25.6352 2.02293 23.6709 3.76378C12.3391 13.636 17.4453 31.5167 25.3481 41.7914C27.7498 45.1154 31.546 49.5456 34.0786 52.8244C37.969 57.6318 40.8194 62.0207 42.6491 66.2623C43.1127 63.1681 43.9524 60.0596 45.2003 56.9812Z" fill="#15ADD2"/>
<path d="M44.315 84.1438C43.1613 89.0129 40.7648 94.1729 37.139 100C41.1357 97.2457 44.4997 93.9431 47.0883 90.2379C45.9765 88.2744 45.0515 86.2373 44.315 84.1438Z" fill="#15ADD2"/>
<path d="M16.79 120.701C16.3161 121.175 15.751 121.544 15.0947 121.809C14.443 122.073 13.7298 122.205 12.9551 122.205C12.1849 122.205 11.4717 122.073 10.8154 121.809C10.1592 121.544 9.58952 121.173 9.10645 120.694C8.62337 120.211 8.2474 119.646 7.97852 118.999C7.71419 118.347 7.58203 117.639 7.58203 116.873C7.58203 116.103 7.71419 115.394 7.97852 114.747C8.2474 114.1 8.62337 113.537 9.10645 113.059C9.58952 112.576 10.1592 112.202 10.8154 111.938C11.4717 111.673 12.1849 111.541 12.9551 111.541C13.7253 111.541 14.4362 111.673 15.0879 111.938C15.7396 112.202 16.3024 112.569 16.7764 113.038L15.5186 114.316C15.2041 113.943 14.8258 113.651 14.3838 113.441C13.9417 113.232 13.4564 113.127 12.9277 113.127C12.4264 113.127 11.9616 113.22 11.5332 113.407C11.1094 113.594 10.7402 113.856 10.4258 114.193C10.1113 114.531 9.86523 114.927 9.6875 115.383C9.51432 115.839 9.42773 116.335 9.42773 116.873C9.42773 117.411 9.51432 117.908 9.6875 118.363C9.86523 118.814 10.1113 119.211 10.4258 119.553C10.7402 119.89 11.1094 120.152 11.5332 120.339C11.9616 120.526 12.4264 120.619 12.9277 120.619C13.4564 120.619 13.9417 120.514 14.3838 120.305C14.8258 120.095 15.2041 119.803 15.5186 119.43L16.79 120.701ZM24.0703 122H22.6074L22.5117 121.159C22.2611 121.469 21.9489 121.711 21.5752 121.884C21.2015 122.052 20.7868 122.137 20.3311 122.137C19.848 122.137 19.4173 122.043 19.0391 121.856C18.6608 121.665 18.3623 121.405 18.1436 121.077C17.9294 120.749 17.8223 120.375 17.8223 119.956C17.8223 119.514 17.9385 119.127 18.1709 118.794C18.4079 118.457 18.7292 118.192 19.1348 118.001C19.5449 117.81 20.012 117.714 20.5361 117.714C20.8551 117.714 21.1742 117.75 21.4932 117.823C21.8167 117.896 22.1152 117.999 22.3887 118.131V117.912C22.3887 117.611 22.3066 117.352 22.1426 117.133C21.9785 116.914 21.7575 116.745 21.4795 116.627C21.2015 116.504 20.8893 116.442 20.543 116.442C20.2285 116.442 19.9141 116.497 19.5996 116.606C19.2852 116.711 18.9912 116.868 18.7178 117.078L18.2393 115.759C18.6768 115.517 19.1234 115.335 19.5791 115.212C20.0394 115.089 20.4883 115.027 20.9258 115.027C21.5684 115.027 22.1243 115.155 22.5938 115.41C23.0632 115.661 23.4255 116.021 23.6807 116.49C23.9404 116.955 24.0703 117.504 24.0703 118.138V122ZM20.6797 120.783C20.9759 120.783 21.2493 120.722 21.5 120.599C21.7552 120.476 21.9626 120.305 22.1221 120.086C22.2861 119.863 22.3727 119.607 22.3818 119.32V119.245C22.1676 119.09 21.9261 118.972 21.6572 118.89C21.3883 118.803 21.1172 118.76 20.8438 118.76C20.4245 118.76 20.0804 118.855 19.8115 119.047C19.5426 119.234 19.4082 119.48 19.4082 119.785C19.4082 119.972 19.4629 120.143 19.5723 120.298C19.6816 120.448 19.832 120.567 20.0234 120.653C20.2194 120.74 20.4382 120.783 20.6797 120.783ZM27.4336 122H25.752V115.164H27.2148L27.2764 116.408C27.5133 115.971 27.8324 115.631 28.2334 115.39C28.639 115.148 29.1038 115.027 29.6279 115.027C29.7646 115.027 29.9036 115.036 30.0449 115.055C30.1908 115.073 30.3343 115.1 30.4756 115.137L30.2705 116.654C29.988 116.572 29.7145 116.531 29.4502 116.531C29.0492 116.531 28.696 116.625 28.3906 116.812C28.0898 116.998 27.8551 117.258 27.6865 117.591C27.5179 117.919 27.4336 118.302 27.4336 118.739V122ZM37.667 121.207C36.8148 121.827 35.8828 122.137 34.8711 122.137C34.1374 122.137 33.4788 121.977 32.8955 121.658C32.3122 121.339 31.8496 120.904 31.5078 120.353C31.1706 119.797 31.002 119.172 31.002 118.479C31.002 117.819 31.1546 117.229 31.46 116.709C31.7699 116.189 32.1914 115.779 32.7246 115.479C33.2624 115.178 33.8685 115.027 34.543 115.027C35.2448 115.027 35.86 115.194 36.3887 115.526C36.9219 115.854 37.3366 116.312 37.6328 116.9C37.929 117.484 38.0771 118.163 38.0771 118.938V119.156H32.8135C32.8955 119.466 33.0391 119.74 33.2441 119.977C33.4538 120.214 33.7135 120.398 34.0234 120.53C34.3333 120.662 34.682 120.729 35.0693 120.729C35.7985 120.729 36.473 120.492 37.0928 120.018L37.667 121.207ZM32.7451 118.172H36.5186C36.4821 117.83 36.3773 117.532 36.2041 117.276C36.0355 117.021 35.8145 116.823 35.541 116.682C35.2721 116.536 34.9691 116.463 34.6318 116.463C34.29 116.463 33.9847 116.536 33.7158 116.682C33.4469 116.827 33.2282 117.03 33.0596 117.29C32.891 117.545 32.7861 117.839 32.7451 118.172ZM46.875 122H45.0703V113.332H41.9531V111.746H49.9854V113.332H46.875V122ZM53.1572 122.137C52.46 122.137 51.8356 121.982 51.2842 121.672C50.7373 121.362 50.3044 120.94 49.9854 120.407C49.6709 119.869 49.5137 119.261 49.5137 118.582C49.5137 117.903 49.6709 117.297 49.9854 116.764C50.3044 116.226 50.7373 115.802 51.2842 115.492C51.8356 115.182 52.46 115.027 53.1572 115.027C53.8499 115.027 54.4697 115.182 55.0166 115.492C55.5635 115.802 55.9919 116.226 56.3018 116.764C56.6162 117.297 56.7734 117.903 56.7734 118.582C56.7734 119.261 56.6162 119.869 56.3018 120.407C55.9919 120.94 55.5635 121.362 55.0166 121.672C54.4697 121.982 53.8499 122.137 53.1572 122.137ZM53.1436 120.626C53.5081 120.626 53.834 120.537 54.1211 120.359C54.4082 120.182 54.6338 119.938 54.7979 119.628C54.9665 119.318 55.0508 118.967 55.0508 118.575C55.0508 118.188 54.9665 117.841 54.7979 117.536C54.6338 117.226 54.4082 116.982 54.1211 116.805C53.834 116.627 53.5081 116.538 53.1436 116.538C52.7835 116.538 52.4577 116.627 52.166 116.805C51.8789 116.982 51.651 117.226 51.4824 117.536C51.3184 117.841 51.2363 118.188 51.2363 118.575C51.2363 118.967 51.3184 119.318 51.4824 119.628C51.651 119.938 51.8789 120.182 52.166 120.359C52.4577 120.537 52.7835 120.626 53.1436 120.626ZM70.1924 120.701C69.7184 121.175 69.1533 121.544 68.4971 121.809C67.8454 122.073 67.1322 122.205 66.3574 122.205C65.5872 122.205 64.874 122.073 64.2178 121.809C63.5615 121.544 62.9919 121.173 62.5088 120.694C62.0257 120.211 61.6497 119.646 61.3809 118.999C61.1165 118.347 60.9844 117.639 60.9844 116.873C60.9844 116.103 61.1165 115.394 61.3809 114.747C61.6497 114.1 62.0257 113.537 62.5088 113.059C62.9919 112.576 63.5615 112.202 64.2178 111.938C64.874 111.673 65.5872 111.541 66.3574 111.541C67.1276 111.541 67.8385 111.673 68.4902 111.938C69.1419 112.202 69.7048 112.569 70.1787 113.038L68.9209 114.316C68.6064 113.943 68.2282 113.651 67.7861 113.441C67.3441 113.232 66.8587 113.127 66.3301 113.127C65.8288 113.127 65.3639 113.22 64.9355 113.407C64.5117 113.594 64.1426 113.856 63.8281 114.193C63.5137 114.531 63.2676 114.927 63.0898 115.383C62.9167 115.839 62.8301 116.335 62.8301 116.873C62.8301 117.411 62.9167 117.908 63.0898 118.363C63.2676 118.814 63.5137 119.211 63.8281 119.553C64.1426 119.89 64.5117 120.152 64.9355 120.339C65.3639 120.526 65.8288 120.619 66.3301 120.619C66.8587 120.619 67.3441 120.514 67.7861 120.305C68.2282 120.095 68.6064 119.803 68.9209 119.43L70.1924 120.701ZM77.4727 122H76.0098L75.9141 121.159C75.6634 121.469 75.3512 121.711 74.9775 121.884C74.6038 122.052 74.1891 122.137 73.7334 122.137C73.2503 122.137 72.8197 122.043 72.4414 121.856C72.0632 121.665 71.7646 121.405 71.5459 121.077C71.3317 120.749 71.2246 120.375 71.2246 119.956C71.2246 119.514 71.3408 119.127 71.5732 118.794C71.8102 118.457 72.1315 118.192 72.5371 118.001C72.9473 117.81 73.4144 117.714 73.9385 117.714C74.2575 117.714 74.5765 117.75 74.8955 117.823C75.2191 117.896 75.5176 117.999 75.791 118.131V117.912C75.791 117.611 75.709 117.352 75.5449 117.133C75.3809 116.914 75.1598 116.745 74.8818 116.627C74.6038 116.504 74.2917 116.442 73.9453 116.442C73.6309 116.442 73.3164 116.497 73.002 116.606C72.6875 116.711 72.3936 116.868 72.1201 117.078L71.6416 115.759C72.0791 115.517 72.5257 115.335 72.9814 115.212C73.4417 115.089 73.8906 115.027 74.3281 115.027C74.9707 115.027 75.5267 115.155 75.9961 115.41C76.4655 115.661 76.8278 116.021 77.083 116.49C77.3428 116.955 77.4727 117.504 77.4727 118.138V122ZM74.082 120.783C74.3783 120.783 74.6517 120.722 74.9023 120.599C75.1576 120.476 75.3649 120.305 75.5244 120.086C75.6885 119.863 75.7751 119.607 75.7842 119.32V119.245C75.57 119.09 75.3285 118.972 75.0596 118.89C74.7907 118.803 74.5195 118.76 74.2461 118.76C73.8268 118.76 73.4827 118.855 73.2139 119.047C72.945 119.234 72.8105 119.48 72.8105 119.785C72.8105 119.972 72.8652 120.143 72.9746 120.298C73.084 120.448 73.2344 120.567 73.4258 120.653C73.6217 120.74 73.8405 120.783 74.082 120.783ZM80.8359 122H79.1543V115.164H80.6172L80.6787 116.408C80.9157 115.971 81.2347 115.631 81.6357 115.39C82.0413 115.148 82.5062 115.027 83.0303 115.027C83.167 115.027 83.306 115.036 83.4473 115.055C83.5931 115.073 83.7367 115.1 83.8779 115.137L83.6729 116.654C83.3903 116.572 83.1169 116.531 82.8525 116.531C82.4515 116.531 82.0983 116.625 81.793 116.812C81.4922 116.998 81.2575 117.258 81.0889 117.591C80.9202 117.919 80.8359 118.302 80.8359 118.739V122ZM91.0693 121.207C90.2171 121.827 89.2852 122.137 88.2734 122.137C87.5397 122.137 86.8812 121.977 86.2979 121.658C85.7145 121.339 85.252 120.904 84.9102 120.353C84.5729 119.797 84.4043 119.172 84.4043 118.479C84.4043 117.819 84.557 117.229 84.8623 116.709C85.1722 116.189 85.5938 115.779 86.127 115.479C86.6647 115.178 87.2708 115.027 87.9453 115.027C88.6471 115.027 89.2624 115.194 89.791 115.526C90.3242 115.854 90.7389 116.312 91.0352 116.9C91.3314 117.484 91.4795 118.163 91.4795 118.938V119.156H86.2158C86.2979 119.466 86.4414 119.74 86.6465 119.977C86.8561 120.214 87.1159 120.398 87.4258 120.53C87.7357 120.662 88.0843 120.729 88.4717 120.729C89.2008 120.729 89.8753 120.492 90.4951 120.018L91.0693 121.207ZM86.1475 118.172H89.9209C89.8844 117.83 89.7796 117.532 89.6064 117.276C89.4378 117.021 89.2168 116.823 88.9434 116.682C88.6745 116.536 88.3714 116.463 88.0342 116.463C87.6924 116.463 87.387 116.536 87.1182 116.682C86.8493 116.827 86.6305 117.03 86.4619 117.29C86.2933 117.545 86.1885 117.839 86.1475 118.172Z" fill="#9ED44E"/>
</svg>
